<?xml version="1.0" encoding="UTF-8" standalone="no"?>
<!DOCTYPE svg PUBLIC "-//W3C//DTD SVG 1.1//EN" "http://www.w3.org/Graphics/SVG/1.1/DTD/svg11.dtd">
<svg width="100%" height="100%" viewBox="0 0 512 512" version="1.1" xmlns="http://www.w3.org/2000/svg" xmlns:xlink="http://www.w3.org/1999/xlink" xml:space="preserve" xmlns:serif="http://www.serif.com/" style="fill-rule:evenodd;clip-rule:evenodd;stroke-linejoin:round;stroke-miterlimit:2;">
    <g id="sun-icon">
        <g>
            <path d="M256,360.099C198.6,360.099 151.901,313.401 151.901,256C151.901,198.599 198.6,151.901 256,151.901C313.4,151.901 360.099,198.6 360.099,256C360.099,313.4 313.4,360.099 256,360.099Z" style="fill-rule:nonzero;"/>
            <path d="M256,116.071C247.716,116.071 241,109.355 241,101.071L241,15C241,6.716 247.716,0 256,0C264.284,0 271,6.716 271,15L271,101.071C271,109.355 264.284,116.071 256,116.071Z" style="fill-rule:nonzero;"/>
            <path d="M146.449,161.449C142.61,161.449 138.771,159.985 135.843,157.056L74.98,96.194C69.122,90.336 69.122,80.839 74.98,74.981C80.837,69.123 90.335,69.123 96.193,74.981L157.055,135.842C162.913,141.7 162.913,151.197 157.055,157.055C154.127,159.984 150.288,161.449 146.449,161.449Z" style="fill-rule:nonzero;"/>
            <path d="M101.071,271L15,271C6.716,271 0,264.284 0,256C0,247.716 6.716,241 15,241L101.071,241C109.355,241 116.071,247.716 116.071,256C116.071,264.284 109.355,271 101.071,271Z" style="fill-rule:nonzero;"/>
            <path d="M85.587,441.413C81.748,441.413 77.909,439.949 74.981,437.019C69.123,431.161 69.123,421.664 74.981,415.806L135.843,354.945C141.701,349.088 151.199,349.088 157.056,354.945C162.914,360.803 162.914,370.3 157.056,376.158L96.193,437.02C93.265,439.948 89.426,441.413 85.587,441.413Z" style="fill-rule:nonzero;"/>
            <path d="M256,512C247.716,512 241,505.284 241,497L241,410.929C241,402.645 247.716,395.929 256,395.929C264.284,395.929 271,402.645 271,410.929L271,497C271,505.284 264.284,512 256,512Z" style="fill-rule:nonzero;"/>
            <path d="M426.413,441.413C422.574,441.413 418.735,439.949 415.807,437.02L354.945,376.159C349.087,370.301 349.087,360.804 354.945,354.946C360.802,349.088 370.3,349.088 376.158,354.946L437.02,415.807C442.878,421.665 442.878,431.162 437.02,437.02C434.091,439.948 430.252,441.413 426.413,441.413Z" style="fill-rule:nonzero;"/>
            <path d="M497,271L410.929,271C402.645,271 395.929,264.284 395.929,256C395.929,247.716 402.645,241 410.929,241L497,241C505.284,241 512,247.716 512,256C512,264.284 505.284,271 497,271Z" style="fill-rule:nonzero;"/>
            <path d="M365.551,161.449C361.712,161.449 357.873,159.985 354.945,157.055C349.087,151.197 349.087,141.7 354.945,135.842L415.807,74.981C421.664,69.125 431.162,69.123 437.02,74.981C442.878,80.839 442.878,90.336 437.02,96.194L376.158,157.055C373.229,159.984 369.389,161.449 365.551,161.449Z" style="fill-rule:nonzero;"/>
        </g>
    </g>
</svg>
